<svg xmlns="http://www.w3.org/2000/svg" version="1.1" xmlns:xlink="http://www.w3.org/1999/xlink" width="512" height="513"><svg width="512" height="513" viewBox="0 0 512 513" fill="none" xmlns="http://www.w3.org/2000/svg">
<path d="M145.518 368.718V396.24H141.403C132.419 396.24 124.238 394.964 116.861 392.41C109.484 389.856 103.147 386.168 97.8505 381.344C92.6487 376.521 88.6292 370.61 85.7919 363.611C82.9546 356.707 81.5359 348.81 81.5359 339.919C81.5359 336.609 81.6778 333.015 81.9615 329.138C82.3398 325.26 82.6708 321.43 82.9546 317.647C83.3329 313.769 83.6639 310.128 83.9476 306.723C84.3259 303.223 84.5151 300.244 84.5151 297.785C84.5151 292.394 83.9949 287.949 82.9546 284.45C81.9142 280.95 80.3064 278.208 78.1311 276.222C75.9558 274.141 73.1185 272.722 69.6191 271.966C66.1198 271.114 61.9584 270.689 57.1349 270.689H56V242.883H57.1349C61.9584 242.883 66.1198 242.505 69.6191 241.748C73.1185 240.897 75.9558 239.478 78.1311 237.492C80.3064 235.411 81.9142 232.621 82.9546 229.122C83.9949 225.623 84.5151 221.178 84.5151 215.787C84.5151 213.328 84.3259 210.396 83.9476 206.991C83.6639 203.586 83.3329 199.992 82.9546 196.209C82.6708 192.331 82.3398 188.454 81.9615 184.576C81.6778 180.698 81.5359 177.057 81.5359 173.652C81.5359 164.762 82.9546 156.865 85.7919 149.961C88.6292 142.962 92.6487 137.051 97.8505 132.227C103.147 127.404 109.484 123.716 116.861 121.162C124.238 118.608 132.419 117.332 141.403 117.332H145.518V144.995H141.403C131.473 144.995 123.859 147.454 118.563 152.372C113.267 157.196 110.618 164.478 110.618 174.22C110.618 177.152 110.76 180.32 111.044 183.725C111.328 187.13 111.659 190.629 112.037 194.223C112.415 197.722 112.746 201.222 113.03 204.721C113.314 208.22 113.456 211.531 113.456 214.652C113.456 224.677 111.943 233.236 108.916 240.329C105.89 247.328 100.924 252.814 94.0201 256.786C100.924 260.853 105.89 266.433 108.916 273.526C111.943 280.525 113.456 288.99 113.456 298.92C113.456 302.041 113.314 305.351 113.03 308.851C112.746 312.35 112.415 315.897 112.037 319.491C111.659 322.99 111.328 326.442 111.044 329.847C110.76 333.252 110.618 336.42 110.618 339.352C110.618 349.093 113.267 356.423 118.563 361.341C123.859 366.259 131.473 368.718 141.403 368.718H145.518Z" fill="#393A3E"></path>
<path d="M166.037 292.82H208.455V335.238H166.037V292.82Z" fill="#393A3E"></path>
<path d="M234.791 292.82H277.209V335.238H234.791V292.82Z" fill="#393A3E"></path>
<path d="M303.545 292.82H345.963V335.238H303.545V292.82Z" fill="#393A3E"></path>
<path d="M370.597 368.718C380.527 368.718 388.141 366.259 393.437 361.341C398.733 356.423 401.382 349.093 401.382 339.352C401.382 336.42 401.192 333.252 400.814 329.847C400.53 326.442 400.199 322.99 399.821 319.491C399.537 315.897 399.206 312.35 398.828 308.851C398.544 305.351 398.402 302.041 398.402 298.92C398.402 288.99 399.916 280.525 402.942 273.526C406.063 266.433 411.028 260.853 417.838 256.786C411.028 252.814 406.063 247.328 402.942 240.329C399.916 233.236 398.402 224.677 398.402 214.652C398.402 211.531 398.544 208.22 398.828 204.721C399.206 201.222 399.537 197.722 399.821 194.223C400.199 190.629 400.53 187.13 400.814 183.725C401.192 180.32 401.382 177.152 401.382 174.22C401.382 164.478 398.733 157.196 393.437 152.372C388.141 147.454 380.527 144.995 370.597 144.995H366.483V117.332H370.597C379.581 117.332 387.762 118.608 395.139 121.162C402.517 123.716 408.806 127.404 414.008 132.227C419.209 137.051 423.229 142.962 426.066 149.961C428.904 156.865 430.322 164.762 430.322 173.652C430.322 177.057 430.18 180.698 429.897 184.576C429.613 188.454 429.282 192.331 428.904 196.209C428.525 199.992 428.194 203.586 427.911 206.991C427.627 210.396 427.485 213.328 427.485 215.787C427.485 221.178 427.958 225.623 428.904 229.122C429.944 232.621 431.552 235.411 433.727 237.492C435.997 239.478 438.834 240.897 442.239 241.748C445.738 242.505 449.9 242.883 454.723 242.883H456V270.689H454.723C449.9 270.689 445.738 271.114 442.239 271.966C438.834 272.722 435.997 274.141 433.727 276.222C431.552 278.208 429.944 280.95 428.904 284.45C427.958 287.949 427.485 292.394 427.485 297.785C427.485 300.244 427.627 303.223 427.911 306.723C428.194 310.128 428.525 313.769 428.904 317.647C429.282 321.43 429.613 325.26 429.897 329.138C430.18 333.015 430.322 336.609 430.322 339.919C430.322 348.81 428.904 356.707 426.066 363.611C423.229 370.61 419.209 376.521 414.008 381.344C408.806 386.168 402.517 389.856 395.139 392.41C387.762 394.964 379.581 396.24 370.597 396.24H366.483V368.718H370.597Z" fill="#393A3E"></path>
</svg><style>@media (prefers-color-scheme: light) { :root { filter: none; } }
@media (prefers-color-scheme: dark) { :root { filter: none; } }
</style></svg>